<svg xmlns="http://www.w3.org/2000/svg" version="1.1" xmlns:xlink="http://www.w3.org/1999/xlink" xmlns:svgjs="http://svgjs.com/svgjs" width="148.000000pt" height="320.000000pt"><svg version="1.0" xmlns="http://www.w3.org/2000/svg" width="148.000000pt" height="320.000000pt" viewBox="0 0 148.000000 320.000000" preserveAspectRatio="xMidYMid meet">

<g transform="translate(0.000000,320.000000) scale(0.100000,-0.100000)" fill="#000000" stroke="none">
<path d="M0 2505 l0 -694 25 25 c26 26 45 28 53 6 2 -7 -5 -13 -15 -13 -10 -1
-4 -4 12 -8 17 -4 40 -5 51 -3 l21 4 -22 22 c-17 17 -23 38 -28 95 -3 40 -11
79 -17 86 -16 19 -49 287 -52 417 -2 115 8 246 20 264 7 10 209 0 220 -10 5
-6 11 -35 46 -231 32 -177 45 -265 51 -360 14 -211 28 -333 85 -735 16 -113
31 -234 35 -269 l6 -63 -38 8 c-45 10 -100 10 -128 0 -18 -6 -23 5 -58 141
-84 327 -87 349 -59 397 11 18 20 50 20 69 0 34 0 35 -26 21 -15 -8 -38 -14
-52 -14 -14 0 -31 -4 -39 -9 -9 -6 8 -7 47 -4 58 5 62 4 62 -15 0 -28 -55 -72
-89 -72 -37 0 -84 37 -78 61 3 10 -5 27 -19 40 -25 23 -31 48 -15 64 6 6 4 15
-5 23 -12 11 -14 -109 -14 -868 l0 -880 718 0 719 0 21 23 22 23 0 1577 0
1577 -740 0 -740 0 0 -695z m379 464 c23 -34 41 -66 41 -73 0 -6 11 -35 25
-64 l24 -52 -24 -16 c-36 -23 -77 -15 -88 19 -13 39 -3 57 33 57 16 0 30 4 30
9 0 4 -18 5 -39 1 l-39 -7 -26 94 c-15 52 -24 98 -21 104 11 17 42 -10 84 -72z
m-185 38 c18 -26 40 -88 49 -134 l7 -33 -54 0 c-44 0 -60 5 -85 26 -30 25 -31
26 -15 62 21 51 57 102 71 102 7 0 19 -10 27 -23z m897 -175 c50 -24 87 -58
75 -69 -3 -4 -68 10 -142 31 -75 20 -138 35 -141 32 -3 -2 15 -10 38 -16 24
-6 82 -22 129 -36 46 -13 96 -24 112 -24 16 0 33 -8 42 -22 21 -29 20 -48 -1
-48 -10 0 -58 -8 -107 -17 l-88 -17 -54 57 c-30 31 -60 57 -68 57 -21 0 -67
40 -60 52 4 7 2 8 -4 4 -21 -13 5 -43 53 -61 25 -10 45 -20 45 -24 0 -3 16
-23 36 -44 20 -21 35 -39 33 -41 -2 -2 -48 -20 -102 -40 -110 -41 -227 -92
-227 -100 0 -3 25 6 55 19 111 50 299 115 306 108 4 -4 -38 -48 -94 -98 -171
-153 -208 -192 -82 -87 66 55 133 114 149 131 37 39 56 40 56 3 0 -22 -20 -49
-94 -125 -52 -53 -100 -106 -107 -119 -6 -13 8 0 32 27 76 88 148 154 211 195
62 41 70 57 9 19 -18 -11 -34 -19 -36 -17 -1 2 -5 18 -8 36 -6 31 -4 34 28 48
45 19 134 19 141 0 6 -15 -75 -165 -89 -166 -4 0 -19 12 -34 26 -14 14 -27 23
-29 21 -2 -2 10 -16 26 -32 17 -16 30 -33 30 -38 0 -27 -77 -110 -122 -133
-28 -14 -48 -28 -45 -30 9 -9 94 37 122 66 16 17 35 30 42 30 7 0 13 6 13 13
0 8 9 22 20 32 23 21 54 13 48 -13 -3 -10 2 -24 10 -32 13 -12 14 -11 9 11
-29 127 -30 135 -12 163 10 14 25 25 34 24 11 -2 16 5 16 22 0 36 37 39 71 5
20 -21 25 -33 21 -58 -9 -56 -35 -112 -51 -111 -12 1 -16 -7 -16 -32 0 -19 -4
-34 -10 -34 -5 0 -10 -9 -10 -20 0 -25 -16 -26 -29 -2 -8 13 -10 14 -11 2 0
-25 13 -37 48 -45 47 -10 59 -40 43 -109 -13 -57 -52 -111 -74 -103 -8 3 -24
-15 -39 -42 -37 -65 -52 -76 -142 -101 -90 -25 -115 -23 -244 16 -70 21 -86
31 -103 57 -10 18 -19 40 -19 50 0 13 -5 16 -24 11 -31 -7 -56 27 -56 77 0 31
5 39 33 53 l32 17 -33 -6 c-31 -6 -33 -5 -30 16 2 15 15 29 32 38 l30 14 -37
18 c-19 10 -39 24 -44 31 -8 14 -52 221 -53 251 0 23 148 177 171 177 11 0 19
4 19 9 0 9 45 42 64 46 6 1 19 5 29 10 29 12 120 21 167 15 25 -3 66 -16 91
-28z m-896 -6 l59 -1 9 -43 c12 -62 5 -75 -35 -66 -18 4 -54 7 -79 5 -25 -1
-58 3 -73 9 -26 9 -28 13 -21 48 7 43 28 63 58 54 12 -3 49 -6 82 -6z m1078
-38 c-17 -49 -11 -77 12 -58 20 17 20 -2 -1 -41 -12 -25 -18 -28 -30 -18 -19
16 -19 103 1 119 8 7 15 19 15 26 0 8 4 14 9 14 5 0 2 -19 -6 -42z m-770 -80
c22 -50 63 -243 87 -408 29 -213 50 -373 55 -440 4 -41 15 -142 25 -225 38
-304 41 -344 49 -555 8 -204 2 -321 -19 -359 -6 -11 -22 7 -59 65 -45 70 -51
85 -51 134 0 61 -43 558 -59 685 -11 87 -36 345 -46 467 -3 42 -16 150 -30
240 -23 154 -36 223 -66 344 -14 61 -8 84 23 84 13 0 30 5 38 10 24 15 27 13
53 -42z m-427 -733 c19 -46 18 -55 -8 -55 -29 0 -58 28 -58 55 0 49 45 49 66
0z m874 -62 c8 -13 13 -14 16 -5 7 14 34 17 34 3 0 -14 -19 -24 -60 -33 -26
-5 -22 -6 18 -2 43 4 58 1 80 -16 15 -11 47 -35 72 -53 34 -25 46 -41 53 -72
5 -22 17 -76 28 -119 10 -44 19 -83 19 -87 0 -4 -15 -5 -34 -2 -19 3 -36 1
-40 -6 -5 -7 2 -9 21 -5 48 9 59 -10 81 -142 l20 -120 71 -75 c39 -41 70 -80
69 -88 -5 -23 -26 -24 -33 -1 -4 12 -9 19 -12 16 -3 -3 4 -20 16 -39 23 -37
19 -67 -8 -67 -11 0 -25 18 -39 52 -12 28 -24 49 -27 47 -2 -3 5 -24 16 -47
26 -52 29 -107 6 -129 -28 -28 -51 -6 -57 53 -4 38 -14 60 -44 97 -21 26 -42
47 -45 47 -4 0 -6 -13 -3 -29 5 -39 -31 -79 -55 -60 -32 28 15 217 51 203 15
-6 10 31 -26 171 -27 109 -27 109 -43 205 l-14 85 4 -80 c5 -77 9 -125 20
-247 3 -32 1 -76 -5 -98 -11 -40 -11 -40 -63 -42 -109 -3 -230 3 -265 15 l-37
12 1 65 c0 36 6 99 13 140 7 41 16 107 20 146 5 39 11 76 15 83 4 6 11 24 16
40 l8 28 -50 -14 c-58 -17 -75 -13 -84 22 -8 33 9 53 55 61 20 3 65 15 101 25
56 17 68 24 77 49 13 34 27 38 43 13z m-155 -686 c46 -12 50 -16 53 -45 3 -30
2 -32 -32 -32 -63 0 -86 15 -86 55 0 40 -2 39 65 22z m295 -34 c0 -43 -24 -53
-131 -53 l-99 0 0 33 c0 19 2 36 4 38 2 2 54 4 115 4 107 0 111 -1 111 -22z
m-212 -63 c46 -4 104 -5 128 -2 54 6 74 -9 74 -53 0 -17 3 -35 7 -39 4 -3 8
-12 9 -19 15 -109 15 -125 -1 -141 -33 -32 -231 -14 -256 25 -14 22 -11 56 7
73 14 15 14 16 -3 16 -10 0 -29 3 -43 7 -24 6 -24 6 -7 -11 33 -33 17 -90 -24
-84 -23 3 -24 6 -30 118 -3 63 -3 119 -1 123 2 5 16 6 31 2 14 -4 64 -10 109
-15z m-418 -99 l35 -6 21 -150 c31 -211 39 -321 25 -329 -6 -4 -30 11 -54 33
-32 29 -48 55 -61 98 -10 32 -26 76 -36 98 -20 45 -65 176 -74 217 -5 23 -1
30 21 43 18 9 39 13 58 9 17 -3 46 -9 65 -13z m464 -191 c27 -10 32 -31 20
-77 -4 -15 -15 -22 -40 -25 -46 -5 -64 7 -64 43 0 62 27 81 84 59z m-627 -85
c18 -33 33 -52 33 -43 0 9 -4 20 -10 23 -23 14 -9 35 24 35 35 0 37 -3 66 -90
10 -32 9 -37 -15 -57 -17 -15 -39 -23 -63 -23 -43 0 -86 25 -78 46 3 7 -3 18
-13 24 -39 20 -65 112 -39 138 28 28 62 9 95 -53z m397 -90 c44 -89 53 -137
31 -155 -18 -15 -39 -7 -90 34 -28 22 -28 25 -28 122 1 54 2 106 2 114 2 24
46 -36 85 -115z m152 70 c10 -8 32 -15 47 -15 30 0 66 -20 111 -61 l29 -27
-33 -41 c-18 -22 -39 -41 -47 -41 -7 0 -30 16 -51 35 -27 24 -45 32 -60 29
-27 -8 -72 36 -72 71 0 24 30 65 48 65 5 0 17 -7 28 -15z m-656 -45 c0 -11
-40 -34 -47 -26 -3 3 -3 12 0 21 7 16 47 21 47 5z m15 -30 c-5 -15 -3 -18 8
-14 17 6 42 -48 33 -71 -12 -31 -48 -12 -59 30 -4 17 -5 17 -6 -4 -1 -20 -3
-21 -16 -11 -21 17 -19 40 7 67 26 28 41 30 33 3z m1013 -49 c3 -10 -2 -11
-18 -6 -15 5 -20 4 -16 -4 4 -6 13 -11 20 -11 21 0 27 -52 10 -78 -8 -13 -26
-28 -40 -34 -13 -6 -24 -17 -24 -24 0 -7 -18 -16 -44 -19 -55 -9 -86 10 -112
66 -17 39 -17 42 -1 54 9 7 17 17 17 22 0 5 8 17 18 26 16 14 20 13 52 -13 31
-25 33 -31 23 -49 -10 -16 -9 -22 4 -33 14 -11 16 -11 11 3 -3 9 7 34 23 59
16 24 29 47 29 52 0 14 43 5 48 -11z m41 -147 c3 -16 1 -17 -13 -5 -19 16 -21
34 -3 29 6 -3 14 -13 16 -24z m-29 -9 c16 -20 8 -51 -13 -47 -9 2 -17 -2 -17
-8 0 -5 -11 -10 -25 -10 -14 0 -25 6 -25 13 0 29 13 57 26 57 8 0 19 -10 25
-22 9 -21 9 -21 4 5 -6 29 6 35 25 12z"></path>
<path d="M848 2823 c7 -3 16 -2 19 1 4 3 -2 6 -13 5 -11 0 -14 -3 -6 -6z"></path>
<path d="M770 2800 c-8 -5 -10 -10 -5 -10 6 0 17 5 25 10 8 5 11 10 5 10 -5 0
-17 -5 -25 -10z"></path>
<path d="M952 2350 c-23 -22 -56 -43 -73 -47 -18 -3 -27 -9 -21 -15 15 -15 54
7 102 56 55 57 50 60 -8 6z"></path>
<path d="M1141 2344 c0 -11 3 -14 6 -6 3 7 2 16 -1 19 -3 4 -6 -2 -5 -13z"></path>
<path d="M805 2300 c-11 -4 -38 -6 -60 -4 -39 4 -31 -5 16 -19 9 -3 19 -19 22
-35 4 -22 14 -33 37 -40 20 -7 30 -18 30 -31 0 -29 38 -51 88 -51 54 0 77 12
97 50 11 21 23 30 40 30 14 0 32 11 44 26 30 39 26 51 -5 15 -29 -35 -58 -39
-87 -13 -26 24 -129 22 -157 -3 -25 -22 -66 -13 -76 17 -5 17 0 27 22 45 29
23 25 28 -11 13z m206 -79 c21 -16 22 -22 11 -45 -15 -33 -55 -49 -105 -41
-72 13 -71 87 2 98 54 8 69 6 92 -12z"></path>
<path d="M1141 2294 c0 -11 3 -14 6 -6 3 7 2 16 -1 19 -3 4 -6 -2 -5 -13z"></path>
<path d="M1041 2264 c0 -11 3 -14 6 -6 3 7 2 16 -1 19 -3 4 -6 -2 -5 -13z"></path>
<path d="M1234 2245 c-18 -15 -17 -16 13 -10 26 5 32 3 38 -15 4 -12 9 -19 11
-17 8 8 -19 57 -31 57 -6 0 -20 -7 -31 -15z"></path>
<path d="M1076 2086 c7 -18 -54 -56 -90 -56 -16 0 -25 -4 -21 -10 9 -15 55 -1
93 27 17 13 37 21 42 18 6 -3 10 -2 10 4 0 6 -9 15 -20 21 -15 8 -18 8 -14 -4z"></path>
<path d="M910 1179 c0 -5 -4 -7 -10 -4 -5 3 -10 1 -10 -5 0 -7 7 -9 16 -6 9 3
20 6 25 6 6 0 7 5 4 10 -8 13 -25 13 -25 -1z"></path>
<path d="M195 1820 c3 -5 8 -10 11 -10 2 0 4 5 4 10 0 6 -5 10 -11 10 -5 0 -7
-4 -4 -10z"></path>
<path d="M140 1791 c0 -6 4 -13 10 -16 6 -3 7 1 4 9 -7 18 -14 21 -14 7z"></path>
<path d="M193 1784 c-7 -7 -13 -18 -13 -23 0 -5 -25 -15 -56 -21 -30 -7 -54
-14 -51 -16 2 -2 28 0 57 6 43 8 58 7 77 -5 13 -9 23 -11 23 -6 0 5 -10 15
-22 23 -20 13 -21 17 -9 32 17 20 11 29 -6 10z"></path>
<path d="M434 1085 c-10 -8 -14 -14 -9 -14 6 0 19 6 29 14 11 8 15 15 10 15
-6 0 -19 -7 -30 -15z"></path>
</g>
</svg><style>@media (prefers-color-scheme: light) { :root { filter: none; } }
</style></svg>